<svg xmlns="http://www.w3.org/2000/svg" xmlns:xlink="http://www.w3.org/1999/xlink" width="125.134" height="125.081" viewBox="0 0 125.134 125.081">
  <defs>
    <clipPath id="clip-path">
      <rect id="Rectangle_6" data-name="Rectangle 6" width="125.134" height="125.081" fill="none"/>
    </clipPath>
  </defs>
  <g id="Group_2" data-name="Group 2" transform="translate(-161 -1092)">
    <g id="Group_1" data-name="Group 1" transform="translate(161 1092)" clip-path="url(#clip-path)">
      <path id="Path_1" data-name="Path 1" d="M6.381,0a9.508,9.508,0,0,0-4.75,3.088A7.873,7.873,0,0,0,.026,7.83q-.014,27.357,0,54.714C.03,80.66.064,98.776,0,116.891c-.013,3.615,2.405,7.3,6.129,7.971.094.017.169.143.252.219H95.318c.764-.32,1.56-.579,2.286-.969a7.07,7.07,0,0,0,4.025-6.357c.089-12.984.039-25.97.036-38.954,0-.157-.029-.314-.052-.545H86.07v31.1H15.749V15.713H86.024V46.845h15.645V45.431c0-12.415-.045-24.83.028-37.245A8,8,0,0,0,95.57.219C95.475.2,95.4.075,95.318,0Z" transform="translate(0)" fill="#fff"/>
      <path id="Path_2" data-name="Path 2" d="M179.192,167.071h50.273c2.913,0,4.439-1.495,4.46-4.4.017-2.32-.006-4.641,0-6.961a3.929,3.929,0,0,0-4.22-4.268q-24.43,0-48.861,0h-1.652v-1.324q0-8.916,0-17.832a3.94,3.94,0,0,0-6.942-2.886q-13.367,13.406-26.768,26.778c-2.023,2.023-2.019,4.118.017,6.154q13.386,13.386,26.774,26.771c1.378,1.378,2.948,1.8,4.4,1.167a3.988,3.988,0,0,0,2.531-4.044c-.035-5.9-.013-11.806-.013-17.709Z" transform="translate(-108.798 -96.715)" fill="#fff"/>
    </g>
  </g>
</svg>
